<svg width="32" height="32" viewBox="0 0 32 32" fill="none" xmlns="http://www.w3.org/2000/svg">
<rect width="32" height="32" fill="white"/>
<g clip-path="url(#clip0)">
<path d="M21.2923 4.18716C21.2801 3.67275 21.1209 3.18284 20.8147 2.71742C20.3738 2.03154 19.7491 1.65185 18.9285 1.59061C18.1201 1.52937 17.324 1.83557 16.5402 2.5092C15.8788 1.71309 15.1806 1.28441 14.458 1.22318C13.8946 1.17418 13.368 1.32116 12.8658 1.6641C12.3636 2.00704 12.0084 2.44796 11.8002 2.98687L10.208 9.03733L10.3427 9.19655C10.453 9.22104 10.5999 9.23329 10.7714 9.25779C10.9551 9.27004 11.0776 9.23329 11.1511 9.12306L12.7433 3.30532C12.8536 2.95013 13.074 2.68067 13.3925 2.47246C13.6987 2.252 14.0416 2.15401 14.409 2.19076C15.0582 2.23975 15.5113 2.55819 15.7441 3.13385C15.7685 3.18284 15.7808 3.21958 15.7685 3.25632C15.7563 3.36656 15.6706 3.50128 15.5113 3.64826C15.3276 3.85647 15.2174 3.97895 15.1929 4.04019C14.7275 4.98328 14.4825 5.63241 14.4458 5.99985C14.4213 6.2693 14.4458 6.51426 14.5315 6.73472C14.7642 7.37161 15.2174 7.7268 15.891 7.77579C17.0056 7.87378 17.6057 7.31037 17.7037 6.08559C17.765 5.30172 17.5567 4.43212 17.0546 3.46454L17.0668 3.31756C17.6057 2.76641 18.1936 2.52145 18.8305 2.55819C19.1857 2.57044 19.5042 2.71742 19.7859 2.97462C20.0553 3.24408 20.2268 3.55027 20.3003 3.91771L20.9004 9.91917L21.0351 10.0784C21.1454 10.1029 21.2801 10.1151 21.4638 10.1396C21.6353 10.1519 21.77 10.1151 21.8435 10.0049L21.2923 4.18716ZM16.3442 6.73472C16.2217 6.73472 16.1237 6.74697 16.0747 6.75922C15.6461 6.78371 15.4501 6.56325 15.4868 6.11008L15.7808 5.118L16.2952 4.21166C16.6137 4.88529 16.7484 5.48544 16.6994 6.02435C16.6504 6.46527 16.5402 6.71023 16.3442 6.73472Z" fill="url(#paint0_radial)"/>
<path d="M28.9106 11.4012L24.9423 10.1275C24.3299 9.9315 23.791 9.79677 23.3133 9.71103C22.9091 9.63755 22.5172 9.6008 22.162 9.58855C22.0273 9.58855 21.9048 9.58855 21.7823 9.58855C21.5863 9.6008 21.3781 9.61305 21.1822 9.64979C20.3248 9.78452 19.5165 10.1275 18.7448 10.6909C17.8385 11.3523 17.1526 12.2586 16.6627 13.3976C16.6627 13.4099 16.6627 13.4099 16.6505 13.4221C16.5402 13.6671 16.4545 13.9121 16.3688 14.1693C15.7074 16.2514 15.7319 17.9906 16.479 19.3624V19.3746C16.8464 20.0483 17.3853 20.6484 18.0835 21.1506C18.7938 21.665 19.6757 22.0814 20.729 22.4243L22.2845 22.9265L10.2326 23.049H10.2448L11.935 22.5101C13.5885 21.9834 14.85 21.273 15.7196 20.3667C15.6094 20.2075 15.5236 20.0482 15.4379 19.889C14.5561 18.2356 14.4948 16.1902 15.2542 13.8141C15.4624 13.1649 15.7196 12.5648 16.0381 12.0136C15.5481 11.1195 14.9235 10.3969 14.1519 9.82126C13.368 9.23337 12.5474 8.86593 11.6656 8.70671C11.4206 8.65772 11.1634 8.63322 10.9062 8.62097C10.845 8.62097 10.7837 8.62097 10.7347 8.62097C10.649 8.62097 10.551 8.62097 10.4653 8.62097C10.0733 8.63322 9.65691 8.66996 9.21598 8.74345C8.70157 8.82919 8.11368 8.98841 7.45229 9.19662L3.01855 10.5806L6.96237 23.0735L7.24408 23.9798V24.0043L25.0647 23.8206V23.7839L28.9841 11.5605C29.0086 11.487 28.9718 11.4135 28.9106 11.4012ZM20.9985 10.9113C21.0597 10.5929 21.3169 10.3234 21.6476 10.2622C22.2355 10.152 22.7254 10.6541 22.6152 11.242C22.5539 11.5605 22.2845 11.8299 21.966 11.8789C21.3904 11.9891 20.8882 11.487 20.9985 10.9113ZM21.4516 19.5706C20.4228 19.2399 19.7492 18.6765 19.443 17.8804C19.149 17.1577 19.1735 16.2637 19.5165 15.2103C19.8471 14.1693 20.3493 13.4344 21.0229 12.9935C21.4394 12.7118 21.9048 12.577 22.407 12.5525C22.4804 12.5525 22.5539 12.5525 22.6274 12.5525C22.9459 12.5648 23.2766 12.626 23.6317 12.7485L25.0035 13.1894L22.8234 19.9993L21.4516 19.5706ZM10.5755 9.51507C10.6857 9.46608 10.8082 9.42933 10.9307 9.42933C11.1389 9.42933 11.3349 9.51507 11.4818 9.64979C11.6778 9.83351 11.788 10.1152 11.739 10.4092C11.6778 10.7399 11.4206 10.9971 11.0899 11.0583C10.5633 11.1563 10.1101 10.7521 10.1101 10.2499C10.1101 9.91925 10.306 9.63755 10.5755 9.51507ZM8.87304 12.0259C9.1425 11.9401 9.41195 11.8789 9.66916 11.8544C9.76714 11.8422 9.85287 11.8299 9.95086 11.8299C10.6 11.8054 11.1756 11.9646 11.6901 12.3076C12.4127 12.7853 12.9516 13.5936 13.3068 14.7204C13.662 15.8595 13.6865 16.8271 13.3803 17.6109C13.0373 18.4683 12.3147 19.0807 11.1879 19.4236L9.7304 19.8768H9.71815L7.39105 12.5036L8.87304 12.0259Z" fill="url(#paint1_radial)"/>
<path d="M5.21094 30.2874V27.0417C5.21094 26.907 5.24768 26.809 5.33342 26.7233C5.41915 26.6376 5.51714 26.6008 5.65186 26.6008H6.6072C7.25634 26.6008 7.74626 26.7968 8.1137 27.1765C8.46889 27.5562 8.65261 28.0706 8.65261 28.7197C8.65261 29.3321 8.46889 29.8097 8.1137 30.1772C7.75851 30.5446 7.26859 30.7161 6.66844 30.7161H5.66411C5.55388 30.7161 5.4559 30.6793 5.37016 30.6181C5.25993 30.5568 5.21094 30.4344 5.21094 30.2874ZM6.08054 27.3969V29.92H6.65619C7.01138 29.92 7.29309 29.7975 7.48905 29.5525C7.66053 29.3321 7.74626 29.0381 7.74626 28.6707C7.74626 28.2788 7.66053 27.9726 7.47681 27.7521C7.28084 27.5072 6.98689 27.3969 6.6072 27.3969H6.08054Z" fill="#414142"/>
<path d="M8.92188 30.2875V28.0706C8.92188 27.9359 8.95862 27.8256 9.03211 27.7399C9.10559 27.6542 9.20358 27.6174 9.3383 27.6174C9.46078 27.6174 9.55876 27.6542 9.6445 27.7399C9.71799 27.8256 9.75473 27.9359 9.75473 28.0706V30.2875C9.75473 30.4222 9.71799 30.5325 9.6445 30.6182C9.57101 30.7039 9.47303 30.7407 9.3383 30.7407C9.21582 30.7407 9.11784 30.7039 9.03211 30.6182C8.97087 30.5447 8.92188 30.4345 8.92188 30.2875ZM8.94637 26.907C8.94637 26.7968 8.98311 26.6988 9.06885 26.6131C9.15458 26.5273 9.25257 26.4906 9.3628 26.4906C9.47303 26.4906 9.57101 26.5273 9.65675 26.6131C9.74248 26.6988 9.77923 26.7968 9.77923 26.907C9.77923 27.0173 9.74248 27.1153 9.65675 27.201C9.57101 27.2867 9.47303 27.3235 9.3628 27.3235C9.25257 27.3235 9.15458 27.2867 9.06885 27.201C8.99536 27.1275 8.94637 27.0295 8.94637 26.907Z" fill="#414142"/>
<path d="M10.2937 30.2386L10.8203 27.0051C10.8448 26.8949 10.8938 26.7969 11.0041 26.7112C11.1143 26.6132 11.249 26.5642 11.396 26.5642C11.5307 26.5642 11.6532 26.601 11.7634 26.6867C11.8737 26.7724 11.9349 26.8704 11.9716 26.9806L12.6575 29.271L13.3556 26.9806C13.3924 26.8704 13.4659 26.7724 13.5639 26.6989C13.6741 26.6132 13.7966 26.5642 13.9435 26.5642C14.0905 26.5642 14.2252 26.6132 14.3232 26.6989C14.4334 26.7847 14.4947 26.8949 14.5069 27.0051L15.0458 30.2386V30.3488C15.0458 30.4713 15.0091 30.5693 14.9234 30.655C14.8376 30.7285 14.7396 30.7652 14.6294 30.7652C14.4824 30.7652 14.3845 30.7285 14.311 30.6672C14.2497 30.606 14.2007 30.4958 14.1762 30.361L13.8456 27.9972L13.1352 30.4345C13.0984 30.5325 13.0617 30.606 13.0127 30.655C12.927 30.7285 12.8167 30.7652 12.682 30.7652C12.5473 30.7652 12.4371 30.7285 12.3513 30.655C12.2901 30.5937 12.2411 30.5203 12.2288 30.4345L11.5307 27.9972L11.1755 30.361C11.151 30.4958 11.1143 30.606 11.0408 30.6672C10.9673 30.7285 10.8693 30.7652 10.7224 30.7652C10.5999 30.7652 10.5019 30.7285 10.4284 30.655C10.3549 30.5815 10.3059 30.4835 10.3059 30.3488C10.2814 30.2876 10.2814 30.2631 10.2937 30.2386Z" fill="#414142"/>
<path d="M15.4136 29.5771V28.0706C15.4136 27.9359 15.4503 27.8256 15.5238 27.7399C15.5973 27.6542 15.6953 27.6174 15.83 27.6174C15.9525 27.6174 16.0505 27.6542 16.1362 27.7399C16.2097 27.8256 16.2464 27.9359 16.2464 28.0706V29.5526C16.2464 29.7241 16.2954 29.8466 16.4056 29.9445C16.5159 30.0425 16.6384 30.0915 16.7731 30.0915C16.9201 30.0915 17.0548 30.0425 17.1528 29.9445C17.263 29.8466 17.312 29.7118 17.312 29.5526V28.0706C17.312 27.9359 17.3487 27.8256 17.4222 27.7399C17.4957 27.6542 17.5937 27.6174 17.7284 27.6174C17.8509 27.6174 17.9489 27.6542 18.0346 27.7399C18.1081 27.8256 18.1448 27.9359 18.1448 28.0706V29.5771C18.1448 29.9568 18.0224 30.2507 17.7774 30.4712C17.5324 30.6917 17.2018 30.8019 16.7608 30.8019C16.3199 30.8019 15.9892 30.6917 15.7565 30.4712C15.5361 30.2507 15.4136 29.9445 15.4136 29.5771Z" fill="#414142"/>
<path d="M21.5251 28.1564V30.2139C21.5251 30.3732 21.5128 30.4956 21.4761 30.5569C21.4148 30.6916 21.2923 30.7528 21.1209 30.7528C21.0106 30.7528 20.9127 30.7283 20.8637 30.6671C20.8024 30.6059 20.7657 30.5201 20.7289 30.3977C20.6187 30.5201 20.4962 30.6181 20.3615 30.6916C20.2268 30.7651 20.0798 30.7896 19.9328 30.7896C19.5409 30.7896 19.2102 30.6426 18.953 30.3364C18.6835 30.0302 18.561 29.6506 18.561 29.1852C18.561 28.732 18.6958 28.3523 18.9652 28.0339C19.2347 27.7277 19.5531 27.5685 19.9451 27.5685C20.1165 27.5685 20.2635 27.6052 20.3982 27.6665C20.533 27.7277 20.6554 27.8257 20.7412 27.9604C20.7534 27.8502 20.7902 27.7767 20.8759 27.7032C20.9494 27.642 21.0351 27.6052 21.1454 27.6052C21.3168 27.6052 21.4393 27.6665 21.5006 27.7889C21.5128 27.8624 21.5251 27.9849 21.5251 28.1564ZM19.3939 29.1852C19.3939 29.4179 19.4429 29.6016 19.5531 29.7608C19.6756 29.9445 19.8471 30.0302 20.0553 30.0302C20.2635 30.0302 20.4227 29.9445 20.5452 29.7608C20.6554 29.6016 20.7044 29.4056 20.7044 29.1852C20.7044 28.9647 20.6554 28.781 20.5452 28.6218C20.4227 28.4381 20.2635 28.3401 20.0553 28.3401C19.8471 28.3401 19.6756 28.4258 19.5531 28.6095C19.4429 28.7687 19.3939 28.9647 19.3939 29.1852Z" fill="#414142"/>
<path d="M22.1128 30.2875V27.0418C22.1128 26.907 22.1495 26.809 22.2353 26.7233C22.321 26.6376 22.419 26.6008 22.5537 26.6008H23.5091C24.1582 26.6008 24.6481 26.7968 25.0155 27.1765C25.3707 27.5562 25.5544 28.0706 25.5544 28.7197C25.5544 29.3321 25.3707 29.8098 25.0155 30.1773C24.6604 30.5447 24.1704 30.7162 23.5703 30.7162H22.566C22.4557 30.7162 22.3578 30.6794 22.272 30.6182C22.174 30.557 22.1128 30.4345 22.1128 30.2875ZM22.9824 27.397V29.9201H23.558C23.9132 29.9201 24.1949 29.7976 24.3909 29.5526C24.5624 29.3321 24.6481 29.0382 24.6481 28.6708C24.6481 28.2788 24.5624 27.9726 24.3787 27.7521C24.1827 27.5072 23.8887 27.397 23.5091 27.397H22.9824Z" fill="#414142"/>
<path d="M25.9463 30.2874V28.0706C25.9463 27.9358 25.983 27.8256 26.0565 27.7399C26.13 27.6541 26.228 27.6174 26.3627 27.6174C26.4852 27.6174 26.5832 27.6541 26.6689 27.7399C26.7424 27.8256 26.7791 27.9358 26.7791 28.0706V30.2874C26.7791 30.4221 26.7424 30.5324 26.6689 30.6181C26.5954 30.7038 26.4974 30.7406 26.3627 30.7406C26.2402 30.7406 26.1423 30.7038 26.0565 30.6181C25.983 30.5446 25.9463 30.4344 25.9463 30.2874ZM25.9708 26.907C25.9708 26.7968 26.0075 26.6988 26.0933 26.6131C26.179 26.5273 26.277 26.4906 26.3872 26.4906C26.4974 26.4906 26.5954 26.5273 26.6812 26.6131C26.7669 26.6988 26.8036 26.7968 26.8036 26.907C26.8036 27.0173 26.7669 27.1152 26.6812 27.201C26.5954 27.2867 26.4974 27.3234 26.3872 27.3234C26.277 27.3234 26.179 27.2867 26.0933 27.201C26.0075 27.1275 25.9708 27.0295 25.9708 26.907Z" fill="#414142"/>
</g>
<defs>
<radialGradient id="paint0_radial" cx="0" cy="0" r="1" gradientUnits="userSpaceOnUse" gradientTransform="translate(17.6557 -10.6158) scale(33.4091)">
<stop stop-color="#15BFF1"/>
<stop offset="0.0907707" stop-color="#1AB7E9"/>
<stop offset="0.2482" stop-color="#20A5D8"/>
<stop offset="0.4533" stop-color="#2589BF"/>
<stop offset="0.6985" stop-color="#2766A3"/>
<stop offset="0.9746" stop-color="#293C85"/>
<stop offset="0.9947" stop-color="#293883"/>
</radialGradient>
<radialGradient id="paint1_radial" cx="0" cy="0" r="1" gradientUnits="userSpaceOnUse" gradientTransform="translate(14.5249 7.73089) scale(29.3008)">
<stop stop-color="#B1D23F"/>
<stop offset="0.1518" stop-color="#AACD40"/>
<stop offset="0.3538" stop-color="#99C142"/>
<stop offset="0.5842" stop-color="#7EB144"/>
<stop offset="0.8337" stop-color="#569D46"/>
<stop offset="0.9947" stop-color="#2E9146"/>
</radialGradient>
<clipPath id="clip0">
<rect width="25.9778" height="29.5786" fill="white" transform="translate(3.01855 1.21094)"/>
</clipPath>
</defs>
</svg>
